<?xml version="1.0" encoding="utf-8"?>
<svg xmlns="http://www.w3.org/2000/svg" height="24" width="24" viewBox="0 0 24 24">
  <g>
    <ellipse cy="12" cx="12" ry="12" rx="12" fill="#2500EE" />
    <path id="path1" transform="rotate(0,12,12) translate(2,6.3986469683507) scale(0.0458188387046977,0.0458188387046977)  " fill="#FFFBFB" d="M16.875,124.25L20.03125,124.296875 22.5,124.4375 24.375,124.6875 25.7500019073486,125.0625 27.3749980926514,126.3125 28.25,128.25 55.375,221 55.625,222.125 55.875,221 80.75,128.25 81.5625,126.3125 83.25,125.0625 84.578125,124.6875 86.3125,124.4375 88.546875,124.296875 91.375,124.25 94.109375,124.296875 96.3125,124.4375 98.0468673706055,124.6875 99.375,125.0625 101,126.25 101.75,128 128.625,221 128.875,222.125 129,221 155.75,128.25 156.5625,126.3125 158.3125,125.0625 159.71875,124.6875 161.5625,124.4375 163.921875,124.296875 166.875,124.25 169.578125,124.28125 171.6875,124.375 174.5625,125 176.0625,126.125 176.5,127.875 176.25,130 175.375,133.125 142.25,240 141.0625,242.25 138.8125,243.625 137.109375,244.046875 134.875,244.3125 132.0625,244.453125 128.625,244.5 125.0625,244.4375 122.125,244.25 119.765625,243.9375 117.9375,243.5 116.578125,242.90625 115.625,242.125 114.5,240 90.875,158.375 90.625,157.25 90.375,158.375 68.5,240 67.3125,242.25 66.296875,243.03125 64.875,243.625 63.015625,244.046875 60.6875,244.3125 57.8281211853027,244.453125 54.375,244.5 50.859375,244.4375 48.0625,244.25 45.84375,243.9375 44.0625,243.5 42.703125,242.90625 41.75,242.125 40.625,240 7.75000095367432,133.125 6.87499952316284,130 6.625,127.875 7.12499952316284,126.0625 8.81250095367432,124.9375 10.203125,124.578132629395 12.0000009536743,124.375 14.21875,124.28125 16.875,124.25z M255.875,103.5L228,184.125 284.25,184.125 256,103.5 255.875,103.5z M256.625,81.25L260.28125,81.296875 263.25,81.4375 265.625,81.703125 267.5,82.125 270,83.5625 271.375,85.875 325.625,236.125 326.390625,238.609375 326.6875,240.5625 326.484375,242.046875 325.75,243.125 324.421875,243.84375 322.4375,244.25 319.734375,244.4375 316.25,244.5 312.765625,244.453125 310.0625,244.3125 308.03125,244.0625 306.5625,243.6875 304.8125,242.5 303.75,240.625 289.875,201.25 222.625,201.25 209.375,240.125 208.375,242.0625 206.5625,243.4375 205.125,243.921875 203.1875,244.25 200.671875,244.4375 197.5,244.5 194.203125,244.421875 191.5625,244.1875 189.59375,243.734375 188.3125,243 187.625,241.921875 187.4375,240.4375 187.734375,238.484375 188.5,236 242.75,85.75 244.0625,83.5 245.0625,82.7187576293945 246.4375,82.125 248.21875,81.703125 250.4375,81.4375 253.203125,81.296875 256.625,81.25z M349.501678466797,124.25L352.767303466797,124.296875 355.314178466797,124.4375 357.267303466797,124.671875 358.751678466797,125 360.626678466797,126 361.751678466797,127.5 387.376678466797,169.375 413.376678466797,127.5 414.501678466797,126.125 416.189178466797,125.0625 417.470428466797,124.6875 419.189178466797,124.4375 421.486053466797,124.296875 424.501678466797,124.25 427.798553466797,124.3125 430.439178466797,124.5 432.454803466797,124.859375 433.876678466797,125.4375 434.689178466797,126.265625 434.876678466797,127.375 434.501678466797,128.78125 433.626678466797,130.5 400.751678466797,182.75 435.501678466797,238.25 436.251678466797,239.859375 436.501678466797,241.1875 436.204803466797,242.265625 435.314178466797,243.125 433.814178466797,243.765625 431.689178466797,244.1875 428.892303466797,244.421875 425.376678466797,244.5 422.017303466797,244.453125 419.439178466797,244.3125 417.470428466797,244.0625 415.939178466797,243.6875 413.939178466797,242.5625 412.751678466797,241 385.751678466797,196.375 358.876678466797,241 357.689178466797,242.5625 355.689178466797,243.6875 354.173553466797,244.0625 352.251678466797,244.3125 349.782928466797,244.453125 346.626678466797,244.5 343.329803466797,244.421875 340.689178466797,244.1875 338.689178466797,243.765625 337.314178466797,243.125 336.532928466797,242.265625 336.314178466797,241.1875 336.642303466797,239.859375 337.501678466797,238.25 372.501678466797,183.375 339.376678466797,130.5 338.611053466797,128.890625 338.314178466797,127.5625 338.564178466797,126.468757629395 339.439178466797,125.5625 340.939178466797,124.890625 343.064178466797,124.5 345.892303466797,124.3125 349.501678466797,124.25z" />
  </g>
</svg>

