<?xml version="1.0" standalone="no"?>
<!DOCTYPE svg PUBLIC "-//W3C//DTD SVG 20010904//EN"
 "http://www.w3.org/TR/2001/REC-SVG-20010904/DTD/svg10.dtd">
<svg version="1.0" xmlns="http://www.w3.org/2000/svg"
 width="148.000000pt" height="116.000000pt" viewBox="0 0 148.000000 116.000000"
 preserveAspectRatio="xMidYMid meet">

<g transform="translate(0.000000,116.000000) scale(0.100000,-0.100000)"
fill="#000000" stroke="none">
<path d="M138 1049 l-78 -39 0 -80 0 -80 75 -37 75 -37 0 -76 0 -76 -75 -37
-75 -37 0 -80 0 -80 75 -37 75 -37 0 -73 0 -73 80 -40 80 -40 75 37 75 37 75
-37 75 -37 70 35 70 35 80 -40 80 -40 75 37 75 37 75 -37 75 -37 80 40 80 40
0 80 0 80 -75 37 -75 37 0 76 0 76 75 37 75 37 0 80 0 80 -75 37 -75 37 0 78
0 78 -80 40 -80 40 -75 -37 -75 -37 -75 37 -75 37 -75 -37 -75 -37 -75 37 -75
37 -75 -37 -75 -37 -75 37 c-42 20 -76 37 -78 37 -1 -1 -37 -19 -79 -41z m152
-14 l70 -35 0 -70 0 -70 -70 -35 -70 -35 -70 35 -70 35 0 70 0 70 68 34 c37
19 68 35 70 36 1 0 34 -16 72 -35z m300 0 l70 -35 0 -70 0 -70 -70 -35 -70
-35 -70 35 -70 35 0 70 0 70 68 34 c37 19 68 35 70 36 1 0 34 -16 72 -35z
m300 0 l70 -35 0 -70 0 -70 -70 -35 -70 -35 -70 35 -70 35 0 70 0 70 68 34
c37 19 68 35 70 36 1 0 34 -16 72 -35z m300 0 l70 -35 0 -70 0 -70 -70 -35
-70 -35 -70 35 -70 35 0 70 0 70 68 34 c37 19 68 35 70 36 1 0 34 -16 72 -35z
m-750 -230 l70 -35 0 -70 0 -70 -70 -35 -70 -35 -70 35 -70 35 0 70 0 70 68
34 c37 19 68 35 70 36 1 0 34 -16 72 -35z m300 0 l70 -35 0 -70 0 -70 -70 -35
-70 -35 -70 35 -70 35 0 70 0 70 68 34 c37 19 68 35 70 36 1 0 34 -16 72 -35z
m300 0 l70 -35 0 -70 0 -70 -70 -35 -70 -35 -70 35 -70 35 0 70 0 70 68 34
c37 19 68 35 70 36 1 0 34 -16 72 -35z m300 0 l70 -35 0 -70 0 -70 -70 -35
-70 -35 -70 35 -70 35 0 70 0 70 68 34 c37 19 68 35 70 36 1 0 34 -16 72 -35z
m-1050 -230 l70 -35 0 -68 0 -68 -65 -32 c-36 -18 -72 -32 -80 -32 -9 0 -42
14 -75 30 l-60 30 0 70 0 70 68 34 c37 19 68 35 70 36 1 0 34 -16 72 -35z
m300 0 l70 -35 0 -68 0 -68 -70 -34 -70 -34 -70 34 -70 34 0 68 0 68 68 34
c37 19 68 35 70 36 1 0 34 -16 72 -35z m300 0 l70 -35 0 -70 0 -70 -60 -30
c-33 -16 -66 -30 -75 -30 -8 0 -44 14 -80 32 l-65 32 0 68 0 68 68 34 c37 19
68 35 70 36 1 0 34 -16 72 -35z m300 0 l70 -35 0 -70 0 -70 -70 -35 -70 -35
-70 35 -70 35 0 70 0 70 68 34 c37 19 68 35 70 36 1 0 34 -16 72 -35z m-745
-227 l65 -32 0 -68 0 -68 -70 -35 -70 -35 -70 35 -70 35 0 68 0 68 63 31 c34
18 68 32 74 32 7 1 42 -13 78 -31z m300 0 l65 -32 0 -68 0 -68 -70 -35 -70
-35 -70 35 -70 35 0 68 0 68 63 31 c34 18 68 32 74 32 7 1 42 -13 78 -31z
m295 -3 l70 -35 0 -70 0 -70 -70 -35 -70 -35 -70 35 -70 35 0 70 0 70 68 34
c37 19 68 35 70 36 1 0 34 -16 72 -35z m300 0 l70 -35 0 -70 0 -70 -70 -35
-70 -35 -70 35 -70 35 0 70 0 70 68 34 c37 19 68 35 70 36 1 0 34 -16 72 -35z"/>
<path d="M130 980 c0 -6 35 -10 85 -10 50 0 85 4 85 10 0 6 -35 10 -85 10 -50
0 -85 -4 -85 -10z"/>
<path d="M130 930 c0 -6 35 -10 85 -10 50 0 85 4 85 10 0 6 -35 10 -85 10 -50
0 -85 -4 -85 -10z"/>
<path d="M130 880 c0 -6 35 -10 85 -10 50 0 85 4 85 10 0 6 -35 10 -85 10 -50
0 -85 -4 -85 -10z"/>
<path d="M470 970 c0 -5 5 -10 10 -10 6 0 10 5 10 10 0 6 -4 10 -10 10 -5 0
-10 -4 -10 -10z"/>
<path d="M510 970 c0 -5 5 -10 10 -10 6 0 10 5 10 10 0 6 -4 10 -10 10 -5 0
-10 -4 -10 -10z"/>
<path d="M550 970 c0 -5 5 -10 10 -10 6 0 10 5 10 10 0 6 -4 10 -10 10 -5 0
-10 -4 -10 -10z"/>
<path d="M470 930 c0 -5 5 -10 10 -10 6 0 10 5 10 10 0 6 -4 10 -10 10 -5 0
-10 -4 -10 -10z"/>
<path d="M510 930 c0 -5 5 -10 10 -10 6 0 10 5 10 10 0 6 -4 10 -10 10 -5 0
-10 -4 -10 -10z"/>
<path d="M550 930 c0 -5 5 -10 10 -10 6 0 10 5 10 10 0 6 -4 10 -10 10 -5 0
-10 -4 -10 -10z"/>
<path d="M470 890 c0 -5 5 -10 10 -10 6 0 10 5 10 10 0 6 -4 10 -10 10 -5 0
-10 -4 -10 -10z"/>
<path d="M510 890 c0 -5 5 -10 10 -10 6 0 10 5 10 10 0 6 -4 10 -10 10 -5 0
-10 -4 -10 -10z"/>
<path d="M550 890 c0 -5 5 -10 10 -10 6 0 10 5 10 10 0 6 -4 10 -10 10 -5 0
-10 -4 -10 -10z"/>
<path d="M757 992 c-22 -25 -21 -75 1 -95 10 -10 33 -17 50 -17 22 0 32 -6 37
-20 3 -11 13 -20 22 -20 11 0 13 6 8 23 -4 12 -7 42 -6 66 1 29 -4 50 -15 62
-22 24 -76 25 -97 1z m78 -47 c0 -27 -3 -30 -30 -30 -21 0 -31 5 -33 18 -6 33
6 49 35 45 24 -3 28 -8 28 -33z"/>
<path d="M1102 1008 c-7 -7 -20 -13 -30 -13 -9 0 -17 -7 -17 -16 0 -9 -6 -24
-14 -33 -11 -13 -11 -19 0 -32 8 -9 14 -24 14 -33 0 -9 7 -16 16 -16 9 0 24
-6 33 -14 13 -11 19 -11 32 0 9 8 24 14 33 14 9 0 16 7 16 16 0 9 6 24 14 33
11 13 11 19 0 32 -8 9 -14 24 -14 33 0 9 -8 16 -17 16 -10 0 -23 6 -30 13 -6
6 -15 12 -18 12 -3 0 -12 -6 -18 -12z m43 -78 c0 -18 -6 -26 -23 -28 -24 -4
-38 18 -28 44 3 9 15 14 28 12 17 -2 23 -10 23 -28z"/>
<path d="M298 763 c17 -7 17 -119 0 -126 -7 -3 3 -5 22 -5 19 0 29 2 23 5 -7
2 -13 18 -13 34 0 27 3 29 35 29 32 0 35 -2 35 -29 0 -16 -6 -32 -12 -34 -7
-3 3 -5 22 -5 19 0 29 2 23 5 -8 3 -13 26 -13 63 0 37 5 60 13 63 6 3 -4 5
-23 5 -19 0 -29 -2 -22 -5 6 -2 12 -16 12 -29 0 -21 -5 -24 -35 -24 -30 0 -35
3 -35 24 0 13 6 27 13 29 6 3 -4 5 -23 5 -19 0 -29 -2 -22 -5z"/>
<path d="M590 700 l0 -80 80 0 80 0 0 80 0 80 -80 0 -80 0 0 -80z m140 -10 l0
-50 -60 0 -60 0 0 50 0 50 60 0 60 0 0 -50z"/>
<path d="M902 768 c-9 -9 -6 -18 15 -40 l27 -28 -27 -28 c-21 -22 -24 -31 -15
-40 9 -9 18 -6 40 15 l28 27 28 -27 c22 -21 31 -24 40 -15 9 9 6 18 -15 40
l-27 28 27 28 c21 22 24 31 15 40 -9 9 -18 6 -40 -15 l-28 -27 -28 27 c-22 21
-31 24 -40 15z"/>
<path d="M1370 700 c0 -33 4 -60 10 -60 6 0 10 27 10 60 0 33 -4 60 -10 60 -6
0 -10 -27 -10 -60z"/>
<path d="M100 470 c0 -33 4 -60 10 -60 6 0 10 27 10 60 0 33 -4 60 -10 60 -6
0 -10 -27 -10 -60z"/>
<path d="M536 494 c-36 -49 -41 -53 -56 -39 -14 13 -19 13 -28 2 -9 -11 -5
-20 17 -41 l28 -27 30 38 c64 83 73 100 60 111 -9 8 -22 -4 -51 -44z"/>
<path d="M762 527 c-50 -53 -13 -137 59 -137 47 0 79 34 79 81 0 71 -90 107
-138 56z m110 -4 c23 -20 24 -80 1 -105 -20 -23 -80 -24 -105 -1 -23 20 -24
80 -1 105 20 23 80 24 105 1z"/>
<path d="M786 504 c-31 -30 -9 -84 34 -84 24 0 50 26 50 50 0 43 -54 65 -84
34z"/>
<path d="M1076 455 c20 -25 40 -45 44 -45 4 0 24 20 44 45 l37 45 -81 0 -81 0
37 -45z"/>
<path d="M321 261 c-22 -43 -37 -81 -34 -85 8 -8 158 -8 166 0 8 8 -71 164
-83 164 -5 0 -28 -35 -49 -79z m82 -6 c15 -31 27 -58 27 -60 0 -3 -27 -5 -60
-5 -33 0 -60 2 -60 5 0 10 55 115 60 115 3 0 18 -25 33 -55z"/>
<path d="M360 250 c0 -16 5 -30 10 -30 6 0 10 14 10 30 0 17 -4 30 -10 30 -5
0 -10 -13 -10 -30z"/>
<path d="M550 202 c0 -10 98 -52 120 -52 22 0 120 42 120 52 0 13 -18 9 -60
-12 -22 -11 -49 -20 -60 -20 -11 0 -38 9 -60 20 -42 21 -60 25 -60 12z"/>
<path d="M890 240 l0 -30 80 0 80 0 0 30 0 30 -80 0 -80 0 0 -30z m150 0 c0
-15 -7 -20 -25 -20 -18 0 -25 5 -25 20 0 15 7 20 25 20 18 0 25 -5 25 -20z"/>
<path d="M1207 283 c-8 -44 -2 -53 17 -28 12 17 15 15 45 -28 30 -44 30 -47
11 -47 -33 0 -23 -17 16 -25 20 -3 37 -5 39 -3 9 11 14 78 5 78 -5 0 -10 -7
-10 -15 0 -27 -18 -16 -50 30 -29 42 -30 45 -10 45 31 0 24 17 -11 24 -46 9
-46 9 -52 -31z"/>
</g>
</svg>
