<?xml version="1.0" encoding="utf-8"?>
<svg xmlns="http://www.w3.org/2000/svg" height="48" width="48" viewBox="0 0 48 48">
  <g>
    <path id="path1" transform="rotate(0,24,24) translate(0,0.024752140045166) scale(1.5,1.5)  " fill="#010101" d="M23.542969,22.45802C22.734985,25.87001 21.407959,28.077012 20.090942,29.487016 23.763977,28.375016 26.799988,25.806014 28.536987,22.45802z M10.493958,22.45802C12.218994,27.951005 15.189941,29.660022 16.054993,30.047015 16.948975,29.756 20.10199,28.311998 21.610962,22.45802z M3.4629517,22.45802C5.2749634,25.951003 8.506958,28.585008 12.393982,29.612018 11.026978,28.191026 9.5439453,25.941024 8.5379639,22.45802z M24.159973,12.441993C24.270996,13.596016 24.336975,14.824014 24.302979,16.19999 24.263,17.827007 24.119995,19.268993 23.911987,20.579999L29.339966,20.579999C29.835999,19.143993 30.117981,17.611003 30.117981,16.009011 30.117981,14.775003 29.941956,13.583992 29.640991,12.441993z M9.4679565,12.441993C9.2939453,13.785012 9.2469482,15.264016 9.407959,16.921001 9.539978,18.275005 9.7419434,19.483012 9.9879761,20.579999L22.006958,20.579999C22.225952,19.280009 22.379944,17.827007 22.420959,16.152993 22.454956,14.790017 22.403992,13.560005 22.289001,12.441993z M2.3589478,12.441993C2.05896,13.583992 1.8829956,14.775003 1.8829956,16.009011 1.8829956,17.611003 2.164978,19.143993 2.6599731,20.579999L8.0739746,20.579999C7.848999,19.513011 7.6569824,18.375011 7.532959,17.104015 7.3669434,15.397989 7.4069824,13.855995 7.5769653,12.441993z M20.221985,2.5690017C21.727966,4.1199972,23.221985,6.617008,23.91095,10.564001L29.017944,10.564001C27.416992,6.7680094,24.195984,3.8139975,20.221985,2.5690017z M12.529968,2.3720102C8.2149658,3.4669819,4.6819458,6.5329931,2.9819946,10.564001L7.901001,10.564001C8.7919922,6.6609838,10.78595,4.0180075,12.529968,2.3720102z M16.095947,1.9920053C14.978943,2.6090102,11.182983,5.0700099,9.80896,10.564001L22.013977,10.564001C20.78595,4.1120016,17.180969,2.372987,16.095947,1.9920053z M15.891968,0L16.129944,0.053009032C24.891968,0.12298569 32,7.2519877 32,16.009011 32,24.770004 24.886963,31.900012 16.121948,31.966998L15.828979,31.964008C7.0869751,31.871021 0,24.753005 0,16.009011 0,7.2869913 7.0529785,0.18499745 15.765991,0.057983398z" />
  </g>
</svg>

